<svg xmlns="http://www.w3.org/2000/svg" version="1.1" xmlns:xlink="http://www.w3.org/1999/xlink" xmlns:svgjs="http://svgjs.dev/svgjs" width="2000" height="1247" viewBox="0 0 2000 1247"><g transform="matrix(1,0,0,1,-1.2121212121212466,0.504858299595071)"><svg viewBox="0 0 396 247" data-background-color="#ffffff" preserveAspectRatio="xMidYMid meet" height="1247" width="2000" xmlns="http://www.w3.org/2000/svg" xmlns:xlink="http://www.w3.org/1999/xlink"><g id="tight-bounds" transform="matrix(1,0,0,1,0.2400000000000091,-0.09999999999999432)"><svg viewBox="0 0 395.52 247.2" height="247.2" width="395.52"><g><svg></svg></g><g><svg viewBox="0 0 395.52 247.2" height="247.2" width="395.52"><g transform="matrix(1,0,0,1,75.54432,88.44547182408942)"><svg viewBox="0 0 244.43135999999998 70.30905635182113" height="70.30905635182113" width="244.43135999999998"><g><svg viewBox="0 0 244.43135999999998 70.30905635182113" height="70.30905635182113" width="244.43135999999998"><g><svg viewBox="0 0 244.43135999999998 70.30905635182113" height="70.30905635182113" width="244.43135999999998"><g><svg viewBox="0 0 244.43135999999998 70.30905635182113" height="70.30905635182113" width="244.43135999999998"><g id="textblocktransform"><svg viewBox="0 0 244.43135999999998 70.30905635182113" height="70.30905635182113" width="244.43135999999998" id="textblock"><g><svg viewBox="0 0 244.43135999999998 37.92134537733142" height="37.92134537733142" width="244.43135999999998"><g transform="matrix(1,0,0,1,0,0)"><svg width="244.43135999999998" viewBox="3.61 -39.11 255.22999999999996 39.6" height="37.92134537733142" data-palette-color="#5c41c4"><path d="M10.91 0L3.61 0 6.45-35.77 18.63-35.77 23.95-17.19 25.34-10.55 25.83-10.55 27.34-17.19 32.64-35.77 45.61-35.77 48.44 0 39.14 0 37.96-24.07 37.92-30.52 37.33-30.52 35.82-24.27 28.98-0.71 21.09-0.71 14.21-24.22 12.65-30.52 12.08-30.52 12.04-24.12 10.91 0ZM78.34-6.32L78.34-2.71Q77.02-1.78 75.64-1.16 74.27-0.54 72.9-0.17 71.53 0.2 70.21 0.34 68.89 0.49 67.67 0.49L67.67 0.49Q64.55 0.49 62.03-0.35 59.52-1.2 57.76-2.78 56-4.37 55.06-6.69 54.12-9.01 54.12-11.99L54.12-11.99Q54.12-15.36 55.3-18.03 56.47-20.7 58.43-22.55 60.4-24.39 62.99-25.38 65.57-26.37 68.41-26.37L68.41-26.37Q70.85-26.37 72.91-25.61 74.97-24.85 76.47-23.38 77.98-21.9 78.81-19.71 79.64-17.53 79.64-14.67L79.64-14.67Q79.64-13.75 79.55-12.96 79.47-12.18 79.34-11.67L79.34-11.67 62.84-11.67Q62.84-9.96 63.44-8.74 64.04-7.52 65.15-6.73 66.26-5.93 67.82-5.57 69.38-5.2 71.31-5.2L71.31-5.2Q71.99-5.2 72.84-5.25 73.68-5.3 74.59-5.43 75.51-5.57 76.46-5.77 77.41-5.98 78.34-6.32L78.34-6.32ZM62.84-14.65L71.95-14.65Q71.95-16.33 71.62-17.55 71.29-18.77 70.7-19.57 70.11-20.36 69.31-20.74 68.5-21.12 67.55-21.12L67.55-21.12Q66.5-21.12 65.63-20.68 64.77-20.24 64.15-19.41 63.52-18.58 63.18-17.38 62.84-16.19 62.84-14.65L62.84-14.65ZM102.7-7.62L102.7-20.34Q101.56-20.83 100.67-20.97 99.78-21.12 99.21-21.12L99.21-21.12Q97.55-21.12 96.32-20.43 95.09-19.75 94.27-18.59 93.45-17.43 93.05-15.89 92.65-14.36 92.65-12.65L92.65-12.65Q92.65-10.99 93.01-9.62 93.38-8.25 94.05-7.26 94.72-6.27 95.65-5.74 96.58-5.2 97.72-5.2L97.72-5.2Q98.99-5.2 100.31-5.85 101.63-6.49 102.7-7.62L102.7-7.62ZM102.7-25.83L102.7-39.11 111.2-39.11 111.2 0 103.95 0 103-4Q102.09-3.2 101.11-2.39 100.12-1.59 99.01-0.95 97.9-0.32 96.65 0.09 95.41 0.49 93.99 0.49L93.99 0.49Q91.65 0.49 89.79-0.55 87.93-1.59 86.63-3.31 85.32-5.03 84.64-7.23 83.95-9.42 83.95-11.77L83.95-11.77Q83.95-13.82 84.47-15.7 84.98-17.58 85.93-19.2 86.88-20.83 88.22-22.14 89.55-23.46 91.17-24.4 92.79-25.34 94.66-25.85 96.53-26.37 98.55-26.37L98.55-26.37Q99.8-26.37 100.92-26.2 102.05-26.03 102.7-25.83L102.7-25.83ZM118.47 0L118.47-25.88 126.95-25.88 126.95 0 118.47 0ZM122.6-29.96L122.6-29.96Q121.5-29.96 120.62-30.27 119.74-30.59 119.12-31.15 118.5-31.71 118.16-32.47 117.81-33.23 117.81-34.11L117.81-34.11Q117.81-35.01 118.19-35.79 118.57-36.57 119.23-37.16 119.89-37.74 120.82-38.09 121.75-38.43 122.84-38.43L122.84-38.43Q123.92-38.43 124.81-38.1 125.7-37.77 126.32-37.21 126.95-36.65 127.29-35.89 127.63-35.13 127.63-34.25L127.63-34.25Q127.63-33.35 127.25-32.57 126.87-31.79 126.21-31.2 125.55-30.62 124.63-30.29 123.7-29.96 122.6-29.96ZM131.58-25.88L140.69-25.88 143.62-10.99 144.45-6.03 144.89-6.03 145.79-10.96 149.21-25.1 158.39-25.1 161.78-10.99 162.73-6.03 163.22-6.03 163.98-10.96 167.01-25.88 174.04-25.88 166.96 0 157.41 0 154.24-12.77 153.26-18.55 152.77-18.55 151.67-12.74 148.28 0 138.64 0 131.58-25.88ZM192.39-3.74L192.39-3.74Q191.66-3.13 190.73-2.39 189.81-1.66 188.71-1.01 187.61-0.37 186.36 0.06 185.12 0.49 183.73 0.49L183.73 0.49Q182.04 0.49 180.77-0.16 179.5-0.81 178.66-1.86 177.82-2.91 177.39-4.22 176.97-5.54 176.97-6.86L176.97-6.86Q176.97-8.67 177.78-10.25 178.6-11.84 180.33-13.02 182.07-14.21 184.75-14.89 187.44-15.58 191.15-15.58L191.15-15.58 192.1-15.58 192.1-17.09Q192.1-19.07 190.88-20.09 189.66-21.12 187.61-21.12L187.61-21.12Q186.71-21.12 185.72-20.9 184.73-20.68 183.73-20.3 182.73-19.92 181.77-19.41 180.82-18.9 179.99-18.31L179.99-18.31 179.55-18.55 178.11-23.71Q181.26-25.17 184.07-25.77 186.88-26.37 189.59-26.37L189.59-26.37Q191.91-26.37 193.92-25.93 195.93-25.49 197.41-24.5 198.89-23.51 199.74-21.92 200.6-20.34 200.6-18.02L200.6-18.02 200.6-7.62Q200.6-7.18 200.67-6.75 200.74-6.32 200.94-5.98 201.13-5.64 201.48-5.42 201.82-5.2 202.36-5.2L202.36-5.2Q202.7-5.2 203.03-5.25 203.36-5.3 203.77-5.47L203.77-5.47 203.77-1.86Q202.18-0.76 200.6-0.13 199.01 0.49 197.52 0.49L197.52 0.49Q195.59 0.49 194.35-0.61 193.1-1.71 192.39-3.74ZM192.1-6.93L192.1-12.6 191.17-12.6Q189.25-12.6 187.99-12.32 186.73-12.04 185.99-11.52 185.24-11.01 184.95-10.29 184.66-9.57 184.66-8.67L184.66-8.67Q184.66-7.74 184.92-7.09 185.19-6.45 185.64-6.02 186.1-5.59 186.69-5.4 187.29-5.2 187.95-5.2L187.95-5.2Q188.85-5.2 189.89-5.58 190.93-5.96 192.1-6.93L192.1-6.93ZM212.97 0L204.57-25.88 213.71-25.88 217.54-11.04 218.54-6.05 219.03-6.05 219.96-11.04 223.84-25.88 231.06-25.88 222.67 0 212.97 0ZM257.55-6.32L257.55-2.71Q256.23-1.78 254.85-1.16 253.47-0.54 252.11-0.17 250.74 0.2 249.42 0.34 248.1 0.49 246.88 0.49L246.88 0.49Q243.76 0.49 241.24-0.35 238.73-1.2 236.97-2.78 235.21-4.37 234.27-6.69 233.33-9.01 233.33-11.99L233.33-11.99Q233.33-15.36 234.5-18.03 235.68-20.7 237.64-22.55 239.61-24.39 242.19-25.38 244.78-26.37 247.61-26.37L247.61-26.37Q250.06-26.37 252.12-25.61 254.18-24.85 255.68-23.38 257.18-21.9 258.01-19.71 258.84-17.53 258.84-14.67L258.84-14.67Q258.84-13.75 258.76-12.96 258.67-12.18 258.55-11.67L258.55-11.67 242.05-11.67Q242.05-9.96 242.65-8.74 243.24-7.52 244.36-6.73 245.47-5.93 247.03-5.57 248.59-5.2 250.52-5.2L250.52-5.2Q251.2-5.2 252.05-5.25 252.89-5.3 253.8-5.43 254.72-5.57 255.67-5.77 256.62-5.98 257.55-6.32L257.55-6.32ZM242.05-14.65L251.15-14.65Q251.15-16.33 250.82-17.55 250.5-18.77 249.91-19.57 249.32-20.36 248.52-20.74 247.71-21.12 246.76-21.12L246.76-21.12Q245.71-21.12 244.84-20.68 243.98-20.24 243.35-19.41 242.73-18.58 242.39-17.38 242.05-16.19 242.05-14.65L242.05-14.65Z" opacity="1" transform="matrix(1,0,0,1,0,0)" fill="#5c41c4" class="wordmark-text-0" data-fill-palette-color="primary" id="text-0"></path></svg></g></svg></g><g transform="matrix(1,0,0,1,0,46.87366490863031)"><svg viewBox="0 0 244.43135999999998 23.435391443190817" height="23.435391443190817" width="244.43135999999998"><g transform="matrix(1,0,0,1,0,0)"><svg width="244.43135999999998" viewBox="1.75 -36.35 391.13 37.5" height="23.435391443190817" data-palette-color="#05299f"><path d="M13.85 1.15Q11.35 1.15 8.8 0.08 6.25-1 4.33-2.9 2.4-4.8 1.75-7.2L1.75-7.2 4.3-8.2Q5.25-5.15 8.03-3.38 10.8-1.6 13.85-1.6L13.85-1.6Q16.15-1.6 18.05-2.58 19.95-3.55 21.05-5.33 22.15-7.1 22.15-9.35L22.15-9.35Q22.15-11.75 20.83-13.3 19.5-14.85 16.35-16.4L16.35-16.4Q12.1-18.45 9.9-19.75 7.7-21.05 6.3-22.83 4.9-24.6 4.9-27.05L4.9-27.05Q4.9-29.45 6.2-31.3 7.5-33.15 9.68-34.15 11.85-35.15 14.35-35.15L14.35-35.15Q16.45-35.15 18.28-34.38 20.1-33.6 21.13-32.23 22.15-30.85 22.05-29.15L22.05-29.15 19.25-29.3Q19.25-30.75 17.68-31.58 16.1-32.4 14.25-32.4L14.25-32.4Q11.65-32.4 9.78-30.9 7.9-29.4 7.9-27.2L7.9-27.2Q7.9-25.5 9.05-24.15 10.2-22.8 11.78-21.88 13.35-20.95 15.75-19.85L15.75-19.85Q16.25-19.6 16.8-19.35 17.35-19.1 17.85-18.8L17.85-18.8Q21.8-16.7 23.48-14.53 25.15-12.35 25.15-9.3L25.15-9.3Q25.15-6.25 23.58-3.88 22-1.5 19.4-0.18 16.8 1.15 13.85 1.15L13.85 1.15ZM53.24 0.4Q52.29-0.35 51.71-1.25 51.14-2.15 50.64-3.6L50.64-3.6Q49.64-1.65 47.66-0.58 45.69 0.5 42.89 0.5L42.89 0.5Q38.94 0.5 36.56-1.6 34.19-3.7 34.19-7.3L34.19-7.3Q34.19-11.1 36.86-13.2 39.54-15.3 44.44-15.3L44.44-15.3 50.24-15.3 50.24-17.1Q50.24-20.1 48.94-21.55 47.64-23 44.94-23L44.94-23Q42.94-23 40.84-22.28 38.74-21.55 37.09-20.3L37.09-20.3 35.74-22.5Q37.59-24.05 40.01-24.88 42.44-25.7 44.99-25.7L44.99-25.7Q49.04-25.7 51.14-23.63 53.24-21.55 53.24-17.65L53.24-17.65 53.24-7.2Q53.24-3.35 55.19-1.25L55.19-1.25 53.24 0.4ZM42.94-2.2Q46.29-2.2 48.26-4.05 50.24-5.9 50.24-8.85L50.24-8.85 50.24-12.6 45.14-12.6Q40.89-12.6 39.04-11.38 37.19-10.15 37.19-7.35L37.19-7.35Q37.19-4.85 38.69-3.53 40.19-2.2 42.94-2.2L42.94-2.2ZM67.08 0L67.08-36.3 70.08-36.3 70.08 0 67.08 0ZM92.02 0.4Q87.82 0.4 85.64-1.7 83.47-3.8 83.47-7.7L83.47-7.7 83.47-25 86.47-25 86.47-8.25Q86.47-5.45 87.77-3.88 89.07-2.3 92.17-2.3L92.17-2.3Q94.77-2.3 96.49-3.58 98.22-4.85 100.12-7.45L100.12-7.45 100.12-25 103.12-25 103.12-7.35Q103.12-3.45 105.07-1.45L105.07-1.45 103.22 0.35Q102.12-0.45 101.39-1.73 100.67-3 100.42-4.3L100.42-4.3Q98.82-1.8 96.74-0.7 94.67 0.4 92.02 0.4L92.02 0.4ZM125.71 0.5Q122.36 0.5 119.96-1.23 117.56-2.95 116.31-5.88 115.06-8.8 115.06-12.3L115.06-12.3Q115.06-16.1 116.48-19.07 117.91-22.05 120.66-23.73 123.41-25.4 127.21-25.4L127.21-25.4Q128.36-25.4 130.13-25.28 131.91-25.15 133.26-24.95L133.26-24.95 133.26-36.35 136.01-36.35 136.01-7.2Q136.01-3.35 137.96-1.25L137.96-1.25 136.26 0.4Q134.31-1.05 133.61-3.9L133.61-3.9Q132.46-1.65 130.33-0.58 128.21 0.5 125.71 0.5L125.71 0.5ZM125.86-2.1Q128.11-2.1 129.88-3.2 131.66-4.3 132.56-6.2L132.56-6.2Q133.26-7.6 133.26-9.4L133.26-9.4 133.26-22.3Q130.51-22.65 129.28-22.73 128.06-22.8 126.76-22.8L126.76-22.8Q124.01-22.8 122.01-21.45 120.01-20.1 118.96-17.73 117.91-15.35 117.91-12.45L117.91-12.45Q117.91-8.1 120.01-5.1 122.11-2.1 125.86-2.1L125.86-2.1ZM171.09-34.65L171.99-34.65 186.49-16.15 201.29-34.65 202.19-34.65 202.19 0 199.19 0 199.19-23.5Q199.19-25 199.59-28.4L199.59-28.4Q196.94-24.7 193.04-19.8 189.14-14.9 186.54-12.15L186.54-12.15Q180.29-19.2 176.09-24.3L176.09-24.3Q175.34-25.25 174.79-26.05 174.24-26.85 173.69-27.85L173.69-27.85Q173.69-28 173.89-26.5L173.89-26.5Q174.09-25 174.09-24.2L174.09-24.2 174.09 0 171.09 0 171.09-34.65ZM227.63 0.5Q224.08 0.5 221.3-1.15 218.53-2.8 216.98-5.75 215.43-8.7 215.43-12.45L215.43-12.45Q215.43-16.2 217-19.18 218.58-22.15 221.35-23.83 224.13-25.5 227.68-25.5L227.68-25.5Q231.18-25.5 233.95-23.83 236.73-22.15 238.3-19.2 239.88-16.25 239.88-12.5L239.88-12.5Q239.88-8.75 238.3-5.8 236.73-2.85 233.95-1.18 231.18 0.5 227.63 0.5L227.63 0.5ZM227.68-2.2Q231.83-2.2 234.35-5.05 236.88-7.9 236.88-12.5L236.88-12.5Q236.88-15.55 235.73-17.88 234.58-20.2 232.48-21.5 230.38-22.8 227.68-22.8L227.68-22.8Q224.93-22.8 222.83-21.5 220.73-20.2 219.58-17.82 218.43-15.45 218.43-12.45L218.43-12.45Q218.43-9.45 219.58-7.13 220.73-4.8 222.83-3.5 224.93-2.2 227.68-2.2L227.68-2.2ZM260.92 0.5Q257.57 0.5 255.17-1.23 252.77-2.95 251.52-5.88 250.27-8.8 250.27-12.3L250.27-12.3Q250.27-16.1 251.69-19.07 253.12-22.05 255.87-23.73 258.62-25.4 262.42-25.4L262.42-25.4Q263.57-25.4 265.34-25.28 267.12-25.15 268.47-24.95L268.47-24.95 268.47-36.35 271.22-36.35 271.22-7.2Q271.22-3.35 273.17-1.25L273.17-1.25 271.47 0.4Q269.52-1.05 268.82-3.9L268.82-3.9Q267.67-1.65 265.54-0.58 263.42 0.5 260.92 0.5L260.92 0.5ZM261.07-2.1Q263.32-2.1 265.09-3.2 266.87-4.3 267.77-6.2L267.77-6.2Q268.47-7.6 268.47-9.4L268.47-9.4 268.47-22.3Q265.72-22.65 264.49-22.73 263.27-22.8 261.97-22.8L261.97-22.8Q259.22-22.8 257.22-21.45 255.22-20.1 254.17-17.73 253.12-15.35 253.12-12.45L253.12-12.45Q253.12-8.1 255.22-5.1 257.32-2.1 261.07-2.1L261.07-2.1ZM286.06-11.45Q286.11-7.95 287.76-5.05 289.41-2.15 294.36-2.15L294.36-2.15Q296.51-2.15 298.33-2.7 300.16-3.25 302.31-4.5L302.31-4.5 303.61-2.4Q301.61-1.05 299.16-0.25 296.71 0.55 294.16 0.55L294.16 0.55Q288.91 0.55 285.98-2.83 283.06-6.2 283.06-11.7L283.06-11.7Q283.06-15.25 284.36-18.38 285.66-21.5 288.21-23.45 290.76-25.4 294.21-25.4L294.21-25.4Q297.11-25.4 299.48-24.03 301.86-22.65 303.23-20.28 304.61-17.9 304.61-15L304.61-15Q304.61-14.2 304.56-13.58 304.51-12.95 304.46-12.5L304.46-12.5 304.36-11.45 286.06-11.45ZM286.21-14.15L301.56-14.15Q301.61-14.5 301.61-15.15L301.61-15.15Q301.61-17.25 300.61-18.98 299.61-20.7 297.91-21.7 296.21-22.7 294.16-22.7L294.16-22.7Q291.11-22.7 288.93-20.48 286.76-18.25 286.21-14.15L286.21-14.15ZM326.75-25.5Q328.25-25.5 329.75-25.05L329.75-25.05 329.75-22.25Q328.3-22.6 326.85-22.6L326.85-22.6Q324.3-22.6 322.7-21.35L322.7-21.35Q321.1-20.1 319.85-17.8L319.85-17.8 319.85 0 316.85 0 316.85-17.5Q316.85-21.45 314.75-23.3L314.75-23.3 316.75-25.3Q317.65-24.75 318.45-23.65 319.25-22.55 319.6-21.2L319.6-21.2Q321-23.5 322.4-24.35L322.4-24.35Q324.15-25.5 326.75-25.5L326.75-25.5ZM341.14-17.65Q341.14-21.5 339.09-23.55L339.09-23.55 340.99-25.4Q343.19-23.85 343.79-20.9L343.79-20.9Q345.44-23.25 347.49-24.38 349.54-25.5 352.44-25.5L352.44-25.5Q356.34-25.5 358.51-23.4 360.69-21.3 360.64-17.35L360.64-17.35 360.49 0 357.59 0 357.64-16.8Q357.64-22.8 352.19-22.8L352.19-22.8Q349.64-22.8 347.86-21.58 346.09-20.35 344.14-17.7L344.14-17.7 344.14 0 341.14 0 341.14-17.65ZM390.93 0.4Q389.98-0.35 389.4-1.25 388.83-2.15 388.33-3.6L388.33-3.6Q387.33-1.65 385.35-0.58 383.38 0.5 380.58 0.5L380.58 0.5Q376.63 0.5 374.25-1.6 371.88-3.7 371.88-7.3L371.88-7.3Q371.88-11.1 374.55-13.2 377.23-15.3 382.13-15.3L382.13-15.3 387.93-15.3 387.93-17.1Q387.93-20.1 386.63-21.55 385.33-23 382.63-23L382.63-23Q380.63-23 378.53-22.28 376.43-21.55 374.78-20.3L374.78-20.3 373.43-22.5Q375.28-24.05 377.7-24.88 380.13-25.7 382.68-25.7L382.68-25.7Q386.73-25.7 388.83-23.63 390.93-21.55 390.93-17.65L390.93-17.65 390.93-7.2Q390.93-3.35 392.88-1.25L392.88-1.25 390.93 0.4ZM380.63-2.2Q383.98-2.2 385.95-4.05 387.93-5.9 387.93-8.85L387.93-8.85 387.93-12.6 382.83-12.6Q378.58-12.6 376.73-11.38 374.88-10.15 374.88-7.35L374.88-7.35Q374.88-4.85 376.38-3.53 377.88-2.2 380.63-2.2L380.63-2.2Z" opacity="1" transform="matrix(1,0,0,1,0,0)" fill="#05299f" class="slogan-text-1" data-fill-palette-color="secondary" id="text-1"></path></svg></g></svg></g></svg></g></svg></g></svg></g></svg></g></svg></g><g><path d="M245.816 0c68.262 0 123.6 55.338 123.6 123.6 0 68.262-55.338 123.6-123.6 123.6-54.401 0-100.593-35.145-117.11-83.969h1.807c16.448 47.863 61.858 82.259 115.303 82.259 67.318 0 121.89-54.572 121.89-121.89 0-67.318-54.572-121.89-121.89-121.89-53.444 0-98.855 34.396-115.303 82.259l-1.807 0c16.517-48.824 62.709-83.969 117.11-83.969z" fill="#6300a0" stroke="transparent" data-fill-palette-color="tertiary"></path></g></svg></g><defs></defs></svg><rect width="395.52" height="247.2" fill="none" stroke="none" visibility="hidden"></rect></g></svg></g></svg>